<svg width="616px" height="616px" viewBox="0 0 616 616" version="1.1" xmlns="http://www.w3.org/2000/svg" xmlns:xlink="http://www.w3.org/1999/xlink">
    <!-- Generator: Sketch 48.1 (47250) - http://www.bohemiancoding.com/sketch -->
    <desc>Created with Sketch.</desc>
    <defs>
        <radialGradient cx="78.0215621%" cy="24.8911577%" fx="78.0215621%" fy="24.8911577%" r="100%" id="radialGradient-1">
            <stop stop-color="#3DC0FF" offset="0%"></stop>
            <stop stop-color="#25679A" offset="100%"></stop>
        </radialGradient>
    </defs>
    <g id="Welcome" stroke="none" stroke-width="1" fill="none" fill-rule="evenodd">
        <g id="Desktop-HD" transform="translate(-412.000000, -204.000000)">
            <circle id="Oval" fill="url(#radialGradient-1)" cx="720" cy="512" r="308"></circle>
            <circle id="Oval" fill="#E0E0E0" cx="720" cy="512" r="308"></circle>
            <g id="Group" transform="translate(413.000000, 204.000000)" fill="#C5C5C5">
                <path d="M138.939805,566.150682 L120.514898,523.72709 L137.890481,523.72709 L137.890481,508.212969 L98.5089292,474.834631 L98.5089292,431.485839 L65.2120307,409.253004 L29.1229395,368.155417 L7.17514104,310.170881 L0.653493595,275.891412 C5.50278741,229.07654 20.8381503,185.375226 44.2704004,147.176653 L56.7307452,135.25164 L78.7367143,115.479425 L108.351409,80.6700885 L137.890481,67.0116123 L155.266064,44.7729605 L146.990389,44.7729605 C154.479389,40.2108185 162.17839,35.9592818 170.069498,32.0362451 L178.371459,43.9294856 L237.577579,16.6997892 L281.019445,9.62041717 L299.197783,9.62041717 L327.510839,0.672107089 C376.441897,3.88920459 422.252329,18.5330914 462.29889,41.9605223 L461.016042,43 L475.634238,57.078536 L468.778725,57.078536 L468.778725,70.2414584 L461.016042,65.2642103 L453.857654,70.2414584 L448.482342,70.2414584 L442.313482,70.2414584 L423.401581,57.078536 L390.085279,43 L383.662538,43 L371.012305,49.180632 L349.508875,57.078536 L349.508875,70.2414584 L337.21124,80.9510062 L332,94.1139287 L342.850068,101.501443 L364.282962,101.501443 L383.662538,121.613637 L398.147112,121.613637 C392.772557,108.205508 390.085279,101.501443 390.085279,101.501443 C390.085279,101.501443 387.944366,96.8112061 383.662538,87.4307326 L398.147112,76.5451053 L403.817119,94.1139287 L412.631686,101.501443 L403.817119,113.326161 L423.401581,113.326161 C426.602559,115.110433 426.602559,117.872925 423.401581,121.613637 C420.200603,125.354349 413.672449,128.629428 403.817119,131.438874 L383.662538,131.438874 L364.282962,121.613637 L359.41023,113.326161 C352.809326,118.851145 349.508875,121.613637 349.508875,121.613637 C349.508875,121.613637 347.289272,124.888716 342.850068,131.438874 L332,131.438874 L325.808141,138.475447 L318.730654,138.475447 L311.283481,144.105367 L302.473368,144.105367 L295.44933,144.105367 L295.44933,153.922096 C294.258613,153.922096 296.599959,153.922096 302.473368,153.922096 C308.346777,153.922096 313.765872,156.710332 318.730654,162.286804 L318.730654,173.600093 L318.730654,180.619678 L318.730654,190.672471 L311.283481,190.672471 L295.44933,190.672471 C293.902289,186.001656 291.829671,186.001656 289.231474,190.672471 C286.633278,195.343286 280.552014,202.22331 270.987681,211.312543 L270.987681,220.345359 L280.069491,220.345359 L289.231474,232.00161 L311.283481,232.00161 L318.730654,226.295971 L332,226.295971 C335.47416,216.307019 337.21124,211.312543 337.21124,211.312543 C337.21124,211.312543 337.21124,207.443458 337.21124,199.705286 C340.970459,193.683409 342.850068,190.672471 342.850068,190.672471 C342.850068,190.672471 339.607519,200.725264 349.508875,190.672471 C356.109778,183.970609 364.043807,180.619678 373.310959,180.619678 L383.662538,180.619678 L398.147112,185.412237 L412.631686,194.858505 L423.401581,199.705286 L423.401581,204.488937 C418.152596,215.059885 419.566201,217.33442 427.642395,211.312543 C439.756686,202.279728 434.718597,209.272588 434.718597,204.488937 C434.718597,202.480982 429.959302,202.836252 435.028154,199.705286 C436.500102,198.796083 436.010366,199.26796 442.313482,199.705286 C443.786057,199.807457 443.786057,198.191864 442.313482,194.858505 L423.401581,185.412237 L412.631686,180.619678 C406.755308,175.939955 403.817119,173.600093 403.817119,173.600093 C403.817119,173.600093 401.927116,171.892707 398.147112,168.477935 L403.817119,162.286804 L423.401581,162.286804 L434.718597,168.477935 L448.482342,180.619678 L468.778725,190.672471 L475.634238,199.705286 C480.204579,193.683409 480.204579,190.672471 475.634238,190.672471 C471.063896,190.672471 468.778725,187.32154 468.778725,180.619678 L475.634238,173.600093 L485.757568,173.600093 L492.41192,168.477935 L492.41192,153.922096 L510.005422,162.286804 C510.005422,165.149274 510.005422,168.92037 510.005422,173.600093 C510.005422,178.279816 510.005422,183.970609 510.005422,190.672471 L500.406942,199.705286 C495.076927,198.345316 492.41192,199.939866 492.41192,204.488937 C492.41192,211.312543 485.757568,211.312543 485.757568,211.312543 C485.757568,211.312543 482.48975,218.13615 475.634238,211.312543 C471.063896,206.763473 466.191164,204.488937 461.016042,204.488937 L475.634238,220.345359 L485.757568,226.295971 C483.497879,230.263046 488.381004,230.263046 500.406942,226.295971 C512.43288,222.328896 522.344628,222.328896 530.142186,226.295971 L530.142186,246.793514 L530.142186,270.805303 L500.406942,255.421011 L485.757568,255.421011 L475.634238,255.421011 C470.634308,257.719301 465.761576,257.719301 461.016042,255.421011 C453.897741,251.973575 442.313482,246.793514 442.313482,246.793514 C442.313482,246.793514 436.009515,243.94886 423.401581,238.259552 C420.16096,236.180224 416.570995,236.180224 412.631686,238.259552 C409.349565,239.99199 404.521374,245.712476 398.147112,255.421011 C376.611823,250.129552 363.699529,247.253719 359.41023,246.793514 C355.841065,246.410573 366.539918,240.234726 364.282962,238.259552 C362.489551,236.690049 362.489551,232.702189 364.282962,226.295971 L325.808141,238.259552 L311.283481,238.259552 L280.069491,246.793514 C272.435248,252.545178 267.531338,255.421011 265.357761,255.421011 C263.184184,255.421011 256.382848,260.549108 244.953753,270.805303 L232.139448,275.637948 L225.226761,294.536487 C217.925087,307.046432 213.742733,314.388192 212.679699,316.561769 C211.616666,318.735346 211.616666,326.672465 212.679699,340.373126 L212.679699,360.131296 L212.679699,369.930209 C216.435949,365.41677 220.618303,365.41677 225.226761,369.930209 C232.139448,376.700366 244.784499,389.585936 249.764128,390.561373 C253.083881,391.211664 260.158399,396.216533 270.987681,405.575979 L289.231474,412.417401 C298.96803,419.024244 306.318699,421.601655 311.283481,420.149634 C316.248263,418.697613 324.890849,416.120202 337.21124,412.417401 L371.012305,412.417401 L383.662538,420.149634 C387.944366,421.536329 390.085279,423.892522 390.085279,427.218213 C390.085279,430.543904 390.085279,434.861365 390.085279,440.170593 L403.817119,451.439342 L398.147112,466.021906 L390.085279,480.203604 L383.662538,495.926404 C383.662538,505.980682 383.662538,513.006205 383.662538,517.002974 C383.662538,522.998126 390.085279,526.303032 390.085279,531.514272 C390.085279,534.988432 394.662559,541.414143 403.817119,550.791405 L412.631686,561.0669 L434.718597,543.076988 L468.778725,531.514272 C480.097954,521.840073 485.757568,517.002974 485.757568,517.002974 C485.757568,517.002974 500.406942,502.402594 500.406942,495.926404 C500.406942,491.608944 503.606435,481.640778 510.005422,466.021906 C515.124611,472.447616 517.684206,467.586762 517.684206,451.439342 C517.684206,427.218213 517.684206,427.881867 517.684206,420.149634 C517.684206,414.994812 519.698921,405.132059 523.728353,390.561373 C528.004242,370.274655 530.142186,360.131296 530.142186,360.131296 C530.142186,360.131296 536.659948,357.237648 549.69547,351.450351 L539.223996,331.380397 C541.474777,328.811894 538.447507,325.699997 530.142186,322.044706 C521.836866,318.389415 509.26011,314.842506 492.41192,311.403978 C481.226798,289.33617 475.634238,275.803279 475.634238,270.805303 C475.634238,267.176719 479.861984,254.189564 485.757568,264.168767 C486.594662,265.58568 484.452403,269.372422 485.757568,275.637948 C486.429251,278.862405 488.647368,285.161918 492.41192,294.536487 L510.005422,308 L555.494645,322.044706 L570.250916,311.403978 L577.715905,308 L590.276329,275.637948 C588.946053,267.991827 587.171856,264.168767 584.953738,264.168767 C581.626562,264.168767 564.478466,246.793514 564.478466,246.793514 C564.478466,246.793514 564.478466,243.94886 564.478466,238.259552 C562.055462,243.94886 563.979612,246.793514 570.250916,246.793514 C576.52222,246.793514 585.384297,252.585265 596.837146,264.168767 L596.837146,246.793514 C605.332506,252.545178 609.580186,255.421011 609.580186,255.421011 C609.580186,255.421011 609.992297,255.98603 610.816519,257.116067 C613.568234,273.668426 615,290.66701 615,308 C615,478.103703 477.103703,616 307,616 C244.994077,616 187.267669,597.677218 138.939805,566.150682 Z M318.017959,94.942078 L318.017959,88.5987742 L316,84 C312.220567,84 310.330851,84 310.330851,84 C310.330851,84 310.330851,86.5214916 310.330851,91.5644747 L307.317565,97.8859719 L310.330851,105.753316 L307.317565,116.107827 L299,122.377231 L310.330851,126.85728 L299,133.905665 L310.330851,137.273576 L325.508979,129.444999 L333,122.377231 L323.729304,105.753316 L318.017959,102.026807 L318.017959,94.942078 Z M293.039158,107.099366 L281.662966,112.671681 L281.662966,117.997592 L287.351062,117.997592 L281.662966,128.278321 L293.039158,128.278321 L296.981638,117.688843 L293.039158,107.099366 Z M380.588053,186.036878 L375.674312,191.885114 L380.588053,196.265344 L387.690211,191.885114 L380.588053,186.036878 Z M381.638085,200.659167 L378.097201,206.816636 L379.867643,214.540656 L386.881448,218.261643 L386.881448,209.460405 L381.638085,200.659167 Z" id="Combined-Shape"></path>
            </g>
        </g>
    </g>
</svg>