<svg width="309px" height="238px" viewBox="0 0 309 238" version="1.1" xmlns="http://www.w3.org/2000/svg" xmlns:xlink="http://www.w3.org/1999/xlink">
    <!-- Generator: Sketch 48.1 (47250) - http://www.bohemiancoding.com/sketch -->
    <desc>Created with Sketch.</desc>
    <defs></defs>
    <g id="Welcome" stroke="none" stroke-width="1" fill="none" fill-rule="evenodd">
        <g id="Desktop-HD" transform="translate(-764.000000, -239.000000)">
            <g id="Group-2" transform="translate(764.000000, 239.000000)">
                <rect id="Rectangle-8" fill="#6FB3FF" transform="translate(154.000000, 120.000000) rotate(-35.000000) translate(-154.000000, -120.000000) " x="128" y="64" width="52" height="112"></rect>
                <polygon id="Rectangle-8" fill="#92C5FE" transform="translate(177.000000, 103.500000) rotate(-35.000000) translate(-177.000000, -103.500000) " points="175 47 178.721185 56.9409105 179 154.669202 175.097213 160"></polygon>
                <g id="Group-3" fill="#558DCB">
                    <path d="M96.996404,173.435413 L96.996404,198.216312 L50.9185097,198.216312 L50.9185097,173.435413 L96.996404,173.435413 Z M96.996404,171.460646 L50.9185097,171.460646 L50.9185097,115.805511 L72.2968832,115.805511 L72.2968832,102.370014 L74.2716501,102.370014 L74.2716501,115.805511 L96.996404,115.805511 L96.996404,171.460646 Z M96.996404,200.191079 L96.996404,223.809434 L50.9185097,223.809434 L50.9185097,200.191079 L96.996404,200.191079 Z M96.996404,225.784201 L96.996404,249.639306 L50.9185097,249.639306 L50.9185097,225.784201 L96.996404,225.784201 Z" id="Rectangle-2" transform="translate(73.957457, 176.004660) rotate(54.000000) translate(-73.957457, -176.004660) "></path>
                    <path d="M258.92729,59.380011 L258.92729,84.1609108 L212.849395,84.1609108 L212.849395,59.380011 L258.92729,59.380011 Z M258.92729,57.4052441 L212.849395,57.4052441 L212.849395,1.7501096 L234.227769,1.7501096 L234.227769,-11.6853881 L236.202536,-11.6853881 L236.202536,1.7501096 L258.92729,1.7501096 L258.92729,57.4052441 Z M258.92729,86.1356777 L258.92729,109.754033 L212.849395,109.754033 L212.849395,86.1356777 L258.92729,86.1356777 Z M258.92729,111.7288 L258.92729,135.583905 L212.849395,135.583905 L212.849395,111.7288 L258.92729,111.7288 Z" id="Rectangle-2" transform="translate(235.888343, 61.949258) rotate(234.000000) translate(-235.888343, -61.949258) "></path>
                </g>
            </g>
        </g>
    </g>
</svg>